<?xml version="1.0" encoding="utf-8"?>
<?xml-stylesheet type="text/xsl" href="rss1.xsl"?>
<rss version="2.0" xmlns:atom="http://www.w3.org/2005/Atom" xmlns:content="http://purl.org/rss/1.0/modules/content/" xmlns:dc="http://purl.org/dc/elements/1.1/" xmlns:media="http://search.yahoo.com/mrss/">
<channel>
 <title>Getty</title>
 <link>http://www.gettyimg.com/</link>
 <atom:link href="http://www.gettyimg.com/" rel="self" type="application/rss+xml" />

 
                <item>
                <title><![CDATA[【Cinema Center】SERIES - My Friends Tigger and Pooh - Season 1 - 1080p Disney+ WEB-DL AAC2.0 H.264-LAZY]]></title>
                <link><![CDATA[https://sharemania.us/threads/my-friends-tigger-and-pooh-season-1-1080p-disney-web-dl-aac2-0-h-264-lazy.240749/]]></link>
                <description><![CDATA[<article>
<blockquote class="messageText SelectQuoteContainer ugc baseHtml">
My Friends Tigger and Pooh:<img src="http:////cdn2.broadcasthe.net/tvdb/banners/graphical/80850-g2.jpg" class="bbCodeImage LbImage" alt="[​IMG]" data-url="http:////cdn2.broadcasthe.net/tvdb/banners/graphical/80850-g2.jpg" style=""> <br>
<br>
<div class="bbCodeBlock bbCodeQuote">
<aside>
<blockquote class="quoteContainer"><div class="quote"><i><b>Synopsis:</b></i><br>
"My Friends Tigger &amp; Pooh" is an American computer animated interactive children's television series inspired by Winnie-the-Pooh by A. A. Milne. The television series features Winnie-the-Pooh and his friends, including two new characters: a brave 6-year-old red-headed girl named Darby and her pet dog and sidekick Buster. Although Darby appears to be the main human friend of Pooh and the gang and the leader of the Super Sleuths, Christopher Robin makes several cameos in the series.</div><div class="quoteExpand">Click to expand...</div></blockquote>
</aside>
</div>
<div class="ToggleTriggerAnchor bbCodeSpoilerContainer">
<button type="button" class="button bbCodeSpoilerButton ToggleTrigger Tooltip JsOnly" data-target="> .SpoilerTarget"><span>Spoiler: <span class="SpoilerTitle">MediaInfo</span></span></button>
<div class="SpoilerTarget bbCodeSpoilerText">General<br>
Unique ID : 224444299181874922675816185834390819627 (0xA8DA665063924E87E5BA854FC47E132B)<br>
Complete name : My.Friends.Tigger.and.Pooh.S01E01E02.Rabbits.Ruta-Wakening.-.Tiggers.Shadow.of.a.Doubt.1080p.DSNP.WEB-DL.AAC2.0.H.264-LAZY.mkv<br>
Format : Matroska<br>
Format version : Version 4<br>
File size : 1.45 GiB<br>
Duration : 24 min 3 s<br>
Overall bit rate mode : Variable<br>
Overall bit rate : 8 612 kb/s<br>
Frame rate : 23.976 FPS<br>
Encoded date : 2024-03-25 17:42:13 UTC<br>
Writing application : mkvmerge v83.0 ('Circle Of Friends') 64-bit<br>
Writing library : libebml v1.4.5 + libmatroska v1.7.1<br>
<br>
Video<br>
ID : 1<br>
Format : AVC<br>
Format/Info : Advanced Video Codec<br>
Format profile : High@L4<br>
Format settings : CABAC / 4 Ref Frames<br>
Format settings, CABAC : Yes<br>
Format settings, Reference frames : 4 frames<br>
Codec ID : V_MPEG4/ISO/AVC<br>
Duration : 24 min 2 s<br>
Bit rate mode : Variable<br>
Bit rate : 8 483 kb/s<br>
Maximum bit rate : 12.7 Mb/s<br>
Width : 1 920 pixels<br>
Height : 1 080 pixels<br>
Display aspect ratio : 16:9<br>
Frame rate mode : Constant<br>
Frame rate : 23.976 (24000/1001) FPS<br>
Color space : YUV<br>
Chroma subsampling : 4:2:0<br>
Bit depth : 8 bits<br>
Scan type : Progressive<br>
Bits/(Pixel*Frame) : 0.171<br>
Time code of first frame : 00:00:00;00<br>
Stream size : 1.43 GiB (98%)<br>
Default : Yes<br>
Forced : No<br>
Color range : Limited<br>
Color primaries : BT.709<br>
Transfer characteristics : BT.709<br>
Matrix coefficients : BT.709<br>
<br>
Audio<br>
ID : 2<br>
Format : AAC LC<br>
Format/Info : Advanced Audio Codec Low Complexity<br>
Codec ID : A_AAC-2<br>
Duration : 24 min 3 s<br>
Bit rate : 125 kb/s<br>
Channel(s) : 2 channels<br>
Channel layout : L R<br>
Sampling rate : 48.0 kHz<br>
Frame rate : 46.875 FPS (1024 SPF)<br>
Compression mode : Lossy<br>
Stream size : 21.6 MiB (1%)<br>
Language : English<br>
Default : Yes<br>
Forced : No<br>
<br>
Text #1<br>
ID : 3<br>
Format : UTF-8<br>
Codec ID : S_TEXT/UTF8<br>
Codec ID/Info : UTF-8 Plain Text<br>
Duration : 23 min 54 s<br>
Bit rate : 90 b/s<br>
Frame rate : 0.443 FPS<br>
Count of elements : 635<br>
Stream size : 15.8 KiB (0%)<br>
Title : SDH<br>
Language : English<br>
Default : No<br>
Forced : No<br>
<br>
Text #2<br>
ID : 4<br>
Format : UTF-8<br>
Codec ID : S_TEXT/UTF8<br>
Codec ID/Info : UTF-8 Plain Text<br>
Duration : 23 min 55 s<br>
Bit rate : 71 b/s<br>
Frame rate : 0.263 FPS<br>
Count of elements : 378<br>
Stream size : 12.5 KiB (0%)<br>
Language : Czech<br>
Default : No<br>
Forced : No<br>
<br>
Text #3<br>
ID : 5<br>
Format : UTF-8<br>
Codec ID : S_TEXT/UTF8<br>
Codec ID/Info : UTF-8 Plain Text<br>
Duration : 23 min 54 s<br>
Bit rate : 132 b/s<br>
Frame rate : 0.263 FPS<br>
Count of elements : 377<br>
Stream size : 23.2 KiB (0%)<br>
Language : Greek<br>
Default : No<br>
Forced : No<br>
<br>
Text #4<br>
ID : 6<br>
Format : UTF-8<br>
Codec ID : S_TEXT/UTF8<br>
Codec ID/Info : UTF-8 Plain Text<br>
Duration : 23 min 54 s<br>
Bit rate : 74 b/s<br>
Frame rate : 0.262 FPS<br>
Count of elements : 376<br>
Stream size : 13.0 KiB (0%)<br>
Language : Hungarian<br>
Default : No<br>
Forced : No<br>
<br>
Text #5<br>
ID : 7<br>
Format : UTF-8<br>
Codec ID : S_TEXT/UTF8<br>
Codec ID/Info : UTF-8 Plain Text<br>
Duration : 23 min 54 s<br>
Bit rate : 71 b/s<br>
Frame rate : 0.262 FPS<br>
Count of elements : 376<br>
Stream size : 12.6 KiB (0%)<br>
Language : Polish<br>
Default : No<br>
Forced : No<br>
<br>
Text #6<br>
ID : 8<br>
Format : UTF-8<br>
Codec ID : S_TEXT/UTF8<br>
Codec ID/Info : UTF-8 Plain Text<br>
Duration : 23 min 54 s<br>
Bit rate : 75 b/s<br>
Frame rate : 0.263 FPS<br>
Count of elements : 377<br>
Stream size : 13.3 KiB (0%)<br>
Language : Romanian<br>
Default : No<br>
Forced : No<br>
<br>
Text #7<br>
ID : 9<br>
Format : UTF-8<br>
Codec ID : S_TEXT/UTF8<br>
Codec ID/Info : UTF-8 Plain Text<br>
Duration : 23 min 54 s<br>
Bit rate : 79 b/s<br>
Frame rate : 0.263 FPS<br>
Count of elements : 377<br>
Stream size : 13.9 KiB (0%)<br>
Language : Turkish<br>
Default : No<br>
Forced : No<br>
<br>
Text #8<br>
ID : 10<br>
Format : UTF-8<br>
Codec ID : S_TEXT/UTF8<br>
Codec ID/Info : UTF-8 Plain Text<br>
Duration : 23 min 56 s<br>
Bit rate : 70 b/s<br>
Frame rate : 0.246 FPS<br>
Count of elements : 353<br>
Stream size : 12.3 KiB (0%)<br>
Title : Traditional, Hong Kong<br>
Language : Chinese<br>
Default : No<br>
Forced : No<br>
<br>
Text #9<br>
ID : 11<br>
Format : UTF-8<br>
Codec ID : S_TEXT/UTF8<br>
Codec ID/Info : UTF-8 Plain Text<br>
Duration : 23 min 53 s<br>
Bit rate : 66 b/s<br>
Frame rate : 0.263 FPS<br>
Count of elements : 377<br>
Stream size : 11.6 KiB (0%)<br>
Title : Traditional<br>
Language : Chinese<br>
Default : No<br>
Forced : No<br>
<br>
Menu<br>
00:00:00.040 : en:Intro<br>
00:00:46.080 : en:Scene 1<br>
00:12:17.029 : en:Scene 2<br>
00:23:55.580 : en:Credits</div>
</div><br>
Screenshots:<br>
<img src="https://ptpimg.me/9x60y3.jpg" class="bbCodeImage LbImage" alt="[​IMG]" data-url="https://ptpimg.me/9x60y3.jpg" style=""> <br>
<br>
<div class="bbCodeBlock bbCodeVfcHH HiddenContent">
<div class="attribution type">Hidden Content:</div>
<blockquote>You must either reply or click 'Like' to see the hidden information contained here.</blockquote>
</div>
<div class="messageTextEndMarker">&nbsp;</div>
</blockquote>
</article>]]></description>
                <author><![CDATA[LazyRips]]></author>
                </item>

                
                <item>
                <title><![CDATA[【Music Videos】Los Tetas - Corazón De Sandía (Clean)]]></title>
                <link><![CDATA[https://sharemania.us/threads/los-tetas-coraz%C3%B3n-de-sand%C3%ADa-clean.240750/]]></link>
                <description><![CDATA[<article>
<blockquote class="messageText SelectQuoteContainer ugc baseHtml">
<img src="https://i.ibb.co/VwNNKWp/Los-Tetas-Corazon-De-Sand-a-mp4-thumbs-2024-03-25-23-21-05.jpg" class="bbCodeImage LbImage" alt="[​IMG]" data-url="https://i.ibb.co/VwNNKWp/Los-Tetas-Corazon-De-Sand-a-mp4-thumbs-2024-03-25-23-21-05.jpg" style=""> <br>
<br>
<div class="ToggleTriggerAnchor bbCodeSpoilerContainer">
<button type="button" class="button bbCodeSpoilerButton ToggleTrigger Tooltip JsOnly" data-target="> .SpoilerTarget"><span>Spoiler: <span class="SpoilerTitle">MediaInfo</span></span></button>
<div class="SpoilerTarget bbCodeSpoilerText">Los Tetas - Corazon De Sandía.mp4<br>
Format : MPEG-4<br>
Format profile : Base Media / Version 2<br>
Codec ID : mp42 (mp42/mp41)<br>
File size : 303 MiB<br>
Duration : 4 min 6 s<br>
Overall bit rate mode : Variable<br>
Overall bit rate : 10.3 Mb/s<br>
Frame rate : 29.970 FPS<br>
Encoded date : 2020-10-29 22:49:15 UTC<br>
Tagged date : 2020-10-29 22:49:31 UTC<br>
TIM : 00;00;00;00<br>
TSC : 30000<br>
TSZ : 1001<br>
<br>
Video<br>
ID : 1<br>
Format : AVC<br>
Format/Info : Advanced Video Codec<br>
Format profile : High@L3.1<br>
Format settings : CABAC / 4 Ref Frames<br>
Format settings, CABAC : Yes<br>
Format settings, Reference : 4 frames<br>
Codec ID : avc1<br>
Codec ID/Info : Advanced Video Coding<br>
Duration : 4 min 6 s<br>
Bit rate mode : Variable<br>
Bit rate : 10.0 Mb/s<br>
Maximum bit rate : 12.0 Mb/s<br>
Width : 720 pixels<br>
Height : 480 pixels<br>
Display aspect ratio : 4:3<br>
Original display aspect rat : 4:3<br>
Frame rate mode : Constant<br>
Frame rate : 29.970 (30000/1001) FPS<br>
Standard : NTSC<br>
Color space : YUV<br>
Chroma subsampling : 4:2:0<br>
Bit depth : 8 bits<br>
Scan type : Interlaced<br>
Scan type, store method : Separated fields<br>
Scan order : Bottom Field First<br>
Bits/(Pixel*Frame) : 0.966<br>
Stream size : 294 MiB (97%)<br>
Language : English<br>
Encoded date : 2020-10-29 22:49:15 UTC<br>
Tagged date : 2020-10-29 22:49:15 UTC<br>
Color range : Limited<br>
Color primaries : BT.601 NTSC<br>
Transfer characteristics : BT.601<br>
Matrix coefficients : BT.601<br>
Codec configuration box : avcC<br>
<br>
Audio<br>
ID : 2<br>
Format : AAC LC<br>
Format/Info : Advanced Audio Codec Low Complexity<br>
Codec ID : mp4a-40-2<br>
Duration : 4 min 6 s<br>
Source duration : 4 min 6 s<br>
Bit rate mode : Variable<br>
Bit rate : 317 kb/s<br>
Maximum bit rate : 416 kb/s<br>
Channel(s) : 2 channels<br>
Channel layout : L R<br>
Sampling rate : 48.0 kHz<br>
Frame rate : 46.875 FPS (1024 SPF)<br>
Compression mode : Lossy<br>
Stream size : 9.31 MiB (3%)<br>
Source stream size : 9.32 MiB (3%)<br>
Language : English<br>
Encoded date : 2020-10-29 22:49:15 UTC<br>
Tagged date : 2020-10-29 22:49:15 UTC</div>
</div><br>
<div class="bbCodeBlock bbCodeVfcHH HiddenContent">
<div class="attribution type">Hidden Content:</div>
<blockquote>You must reply before you can see the hidden data contained here.</blockquote>
</div>
<div class="messageTextEndMarker">&nbsp;</div>
</blockquote>
</article>]]></description>
                <author><![CDATA[DJ-RoGeRs-BS]]></author>
                </item>

                </channel></rss>